<?xml version="1.0" encoding="UTF-8" standalone="no"?>
<svg width="463px" height="463px" viewBox="0 0 463 463" version="1.1" xmlns="http://www.w3.org/2000/svg" xmlns:xlink="http://www.w3.org/1999/xlink" xmlns:sketch="http://www.bohemiancoding.com/sketch/ns">
    <!-- Generator: Sketch 3.3.2 (12043) - http://www.bohemiancoding.com/sketch -->
    <title>monokle</title>
    <desc>Created with Sketch.</desc>
    <defs></defs>
    <g id="Page-1" stroke="none" stroke-width="1" fill="none" fill-rule="evenodd" sketch:type="MSPage">
        <rect id="Rectangle-1" stroke="#979797" fill="#F66823" sketch:type="MSShapeGroup" x="1" y="1" width="461" height="461" rx="80"></rect>
        <path d="M343.002007,175.522694 C371.371417,170.210992 388.906521,168.307766 388.906521,181.843591 C388.906521,208.991926 318.368175,231 231.354715,231 C144.341255,231 73.8029088,208.991926 73.8029088,181.843591 C73.8029088,168.320186 91.3058491,170.207512 119.629358,175.508081 L119.629358,138.940387 C119.655534,137.552882 119.629358,136.15883 119.629358,134.758713 C119.629358,73.553002 169.650504,23.9359696 231.354715,23.9359696 C293.058926,23.9359696 343.080072,73.553002 343.080072,134.758713 C343.080072,136.15883 343.053896,137.552882 343.002004,138.940415 L343.002007,175.522694 Z" id="Oval-3" stroke="#FFFFFF" stroke-width="7" fill="#FFFFFF" sketch:type="MSShapeGroup"></path>
        <path d="M307.462137,350 C337.344841,350 361.569559,325.775282 361.569559,295.892578 C361.569559,266.009874 337.344841,241.785156 307.462137,241.785156 C277.579433,241.785156 253.354715,266.009874 253.354715,295.892578 C253.354715,325.775282 277.579433,350 307.462137,350 Z" id="Oval-2" stroke="#FFFFFF" stroke-width="12" sketch:type="MSShapeGroup"></path>
        <ellipse id="Oval-3" stroke="#FFFFFF" fill="#FFFFFF" sketch:type="MSShapeGroup" cx="347.045265" cy="346.306983" rx="7.04033032" ry="7.04033032"></ellipse>
        <ellipse id="Oval-3-Copy-2" stroke="#FFFFFF" fill="#FFFFFF" sketch:type="MSShapeGroup" cx="350.836212" cy="353.347314" rx="4.33251096" ry="4.33251096"></ellipse>
        <ellipse id="Oval-3-Copy-3" stroke="#FFFFFF" fill="#FFFFFF" sketch:type="MSShapeGroup" cx="350.836212" cy="362.012336" rx="4.33251096" ry="4.33251096"></ellipse>
        <ellipse id="Oval-3-Copy-4" stroke="#FFFFFF" fill="#FFFFFF" sketch:type="MSShapeGroup" cx="350.836212" cy="370.677357" rx="4.33251096" ry="4.33251096"></ellipse>
        <ellipse id="Oval-3-Copy-5" stroke="#FFFFFF" fill="#FFFFFF" sketch:type="MSShapeGroup" cx="350.836212" cy="379.342379" rx="4.33251096" ry="4.33251096"></ellipse>
        <ellipse id="Oval-3-Copy-6" stroke="#FFFFFF" fill="#FFFFFF" sketch:type="MSShapeGroup" cx="350.836212" cy="388.007401" rx="4.33251096" ry="4.33251096"></ellipse>
        <ellipse id="Oval-3-Copy-12" stroke="#FFFFFF" fill="#FFFFFF" sketch:type="MSShapeGroup" cx="350.836212" cy="396.672423" rx="4.33251096" ry="4.33251096"></ellipse>
        <ellipse id="Oval-3-Copy-7" stroke="#FFFFFF" fill="#FFFFFF" sketch:type="MSShapeGroup" cx="350.836212" cy="405.337445" rx="4.33251096" ry="4.33251096"></ellipse>
        <ellipse id="Oval-3-Copy-8" stroke="#FFFFFF" fill="#FFFFFF" sketch:type="MSShapeGroup" cx="350.836212" cy="414.002467" rx="4.33251096" ry="4.33251096"></ellipse>
        <ellipse id="Oval-3-Copy-9" stroke="#FFFFFF" fill="#FFFFFF" sketch:type="MSShapeGroup" cx="350.836212" cy="422.667489" rx="4.33251096" ry="4.33251096"></ellipse>
    </g>
</svg>